<svg width="1071" height="1035" viewBox="0 0 1071 1035" fill="none" xmlns="http://www.w3.org/2000/svg">
<g clip-path="url(#clip0_801_4112)">
<mask id="mask0_801_4112" style="mask-type:luminance" maskUnits="userSpaceOnUse" x="0" y="0" width="1071" height="1035">
<path d="M1070.43 0H0V1034.65H1070.43V0Z" fill="white"/>
</mask>
<g mask="url(#mask0_801_4112)">
<path d="M732.755 196.445L704.784 181.015L314.471 888.507L342.441 903.937L732.755 196.445Z" fill="#907732"/>
<path d="M308.302 881.665L349.495 904.192L337.454 926.209L296.262 903.681L308.302 881.665Z" fill="#FFD871"/>
<path d="M732.755 196.445L704.784 181.015L314.471 888.507L342.441 903.937L732.755 196.445Z" fill="url(#paint0_linear_801_4112)"/>
<mask id="mask1_801_4112" style="mask-type:luminance" maskUnits="userSpaceOnUse" x="314" y="181" width="419" height="723">
<path d="M732.755 196.445L704.784 181.015L314.471 888.507L342.441 903.937L732.755 196.445Z" fill="white"/>
</mask>
<g mask="url(#mask1_801_4112)">
<path d="M511.043 420.264L652.643 664.385L613.42 687.136L471.82 443.015L511.043 420.264Z" fill="#D1AC4B"/>
</g>
<path d="M308.302 881.665L349.495 904.192L337.454 926.209L296.262 903.681L308.302 881.665Z" fill="url(#paint1_linear_801_4112)"/>
<path d="M725.453 234.923L757.006 243.3C797.173 253.965 830.077 282.736 846.007 321.12L849.655 329.909C870.331 379.727 918.965 412.199 972.903 412.199H1009.07L883.809 648.809L840.447 635.461C810.126 626.128 784.122 606.296 767.099 579.524L736.239 530.987C715.605 498.532 681.97 476.559 643.961 470.7L601.221 464.112L725.453 234.923Z" fill="url(#paint2_linear_801_4112)"/>
<path d="M715.297 342.629C721.784 338.52 743.348 321.895 769.705 335.688C793.365 348.071 793.952 372.064 793.952 384.355C793.952 396.644 791.584 399.367 784.008 389.619C776.431 379.871 773.601 370.936 756.424 361.932C739.247 352.927 722.844 350.781 717.204 350.781C711.565 350.781 708.811 346.739 715.297 342.629Z" fill="#170C60"/>
<path d="M923.868 460.672C924.16 452.999 927.697 426 902.527 410.145C879.932 395.912 858.893 407.463 848.268 413.639C837.643 419.816 836.479 423.231 848.713 424.883C860.948 426.533 870.095 424.491 886.512 434.816C902.931 445.141 913.027 458.244 915.861 463.12C918.695 467.996 923.576 468.345 923.868 460.672Z" fill="#170C60"/>
<path d="M735.831 450.801C734.851 459.729 728.406 491.06 757.21 510.359C783.067 527.684 809.176 514.923 822.391 508.079C835.607 501.235 803.367 507.953 772.13 489.919C740.892 471.884 736.81 441.873 735.831 450.801Z" fill="#170C60"/>
<path d="M689.044 181.015C689.044 162.408 704.127 147.325 722.733 147.325C741.339 147.325 756.423 162.408 756.423 181.015C756.423 199.62 741.339 214.704 722.733 214.704C704.127 214.704 689.044 199.62 689.044 181.015Z" fill="url(#paint3_radial_801_4112)"/>
<path d="M725.453 234.923L757.006 243.3C797.173 253.965 830.077 282.736 846.007 321.12L849.655 329.909C870.331 379.727 918.965 412.199 972.903 412.199H1009.07L883.809 648.809L840.447 635.461C810.126 626.128 784.122 606.296 767.099 579.524L736.239 530.987C715.605 498.532 681.97 476.559 643.961 470.7L601.221 464.112L725.453 234.923Z" fill="url(#paint4_linear_801_4112)"/>
<path d="M727.713 344.239C734.737 341.136 758.525 327.888 782.549 345.433C804.115 361.184 801.14 384.999 799.32 397.153C797.5 409.308 794.755 411.649 788.705 400.888C782.657 390.125 781.181 380.871 765.528 369.42C749.873 357.969 733.969 353.42 728.392 352.584C722.815 351.749 720.689 347.341 727.713 344.239Z" fill="#170C60"/>
<path d="M916.5 491.872C917.925 484.327 925.424 458.151 902.878 438.743C882.641 421.319 860.123 429.627 848.699 434.161C837.277 438.696 835.621 441.9 847.476 445.345C859.33 448.792 868.678 448.125 883.386 460.768C898.094 473.412 906.138 487.867 908.218 493.108C910.3 498.349 915.074 499.417 916.5 491.872Z" fill="#170C60"/>
<path d="M789.913 545.372C792.107 535.033 803.334 499.109 771.878 473.132C743.641 449.812 711.574 461.687 695.298 468.147C679.023 474.607 717.557 470.527 752.01 495.311C786.463 520.095 787.718 555.709 789.913 545.372Z" fill="#170C60"/>
</g>
<path d="M350.097 205.016L378.067 189.585L768.381 897.077L740.41 912.508L350.097 205.016Z" fill="url(#paint5_linear_801_4112)"/>
<path d="M774.55 890.236L733.356 912.763L745.396 934.78L786.59 912.252L774.55 890.236Z" fill="url(#paint6_linear_801_4112)"/>
<path d="M357.399 243.493L325.846 251.871C285.679 262.536 252.775 291.307 236.844 329.691L233.196 338.48C212.52 388.297 163.886 420.769 109.949 420.769H73.7832L199.043 657.38L242.404 644.032C272.726 634.699 298.73 614.867 315.752 588.095L346.612 539.557C367.247 507.103 400.882 485.129 438.891 479.271L481.631 472.683L357.399 243.493Z" fill="url(#paint7_linear_801_4112)"/>
<path d="M367.554 351.2C361.067 347.091 339.503 330.465 313.146 344.259C289.486 356.641 288.899 380.635 288.899 392.925C288.899 405.215 291.267 407.937 298.843 398.189C306.421 388.441 309.25 379.507 326.427 370.503C343.605 361.497 360.007 359.352 365.647 359.352C371.286 359.352 374.041 355.309 367.554 351.2Z" fill="#170C60"/>
<path d="M158.983 469.243C158.691 461.569 155.153 434.571 180.324 418.716C202.919 404.483 223.957 416.033 234.583 422.209C245.208 428.387 246.372 431.801 234.137 433.453C221.903 435.104 212.756 433.061 196.339 443.387C179.92 453.712 169.824 466.815 166.989 471.691C164.156 476.567 159.275 476.916 158.983 469.243Z" fill="#170C60"/>
<path d="M347.02 459.372C348 468.3 354.446 499.631 325.642 518.929C299.784 536.255 273.675 523.493 260.459 516.649C247.244 509.805 279.484 516.524 310.721 498.489C341.959 480.455 346.042 450.444 347.02 459.372Z" fill="#170C60"/>
<path d="M393.807 189.585C393.807 170.979 378.725 155.896 360.118 155.896C341.513 155.896 326.429 170.979 326.429 189.585C326.429 208.191 341.513 223.275 360.118 223.275C378.725 223.275 393.807 208.191 393.807 189.585Z" fill="url(#paint8_radial_801_4112)"/>
</g>
<defs>
<linearGradient id="paint0_linear_801_4112" x1="415.319" y1="758.972" x2="391.064" y2="745.348" gradientUnits="userSpaceOnUse">
<stop stop-color="#835F00"/>
<stop offset="0.491667" stop-color="#CEAC52"/>
<stop offset="1" stop-color="#896400"/>
</linearGradient>
<linearGradient id="paint1_linear_801_4112" x1="344.239" y1="915.761" x2="301.266" y2="893.081" gradientUnits="userSpaceOnUse">
<stop stop-color="#B58400"/>
<stop offset="0.491667" stop-color="#FFD668"/>
<stop offset="1" stop-color="#B58400"/>
</linearGradient>
<linearGradient id="paint2_linear_801_4112" x1="953.951" y1="516.761" x2="654.233" y2="361.323" gradientUnits="userSpaceOnUse">
<stop stop-color="#872199"/>
<stop offset="0.285417" stop-color="#DF5AF6"/>
<stop offset="0.69375" stop-color="#AB1BC4"/>
<stop offset="1" stop-color="#DE68F2"/>
</linearGradient>
<radialGradient id="paint3_radial_801_4112" cx="0" cy="0" r="1" gradientUnits="userSpaceOnUse" gradientTransform="translate(729.384 172.231) rotate(167.716) scale(41.2851)">
<stop stop-color="#FFD668"/>
<stop offset="1" stop-color="#B58400"/>
</radialGradient>
<linearGradient id="paint4_linear_801_4112" x1="664.195" y1="342.772" x2="971.222" y2="513.343" gradientUnits="userSpaceOnUse">
<stop stop-color="#217199"/>
<stop offset="0.285417" stop-color="#5ADCF6"/>
<stop offset="0.69375" stop-color="#1B9AC4"/>
<stop offset="1" stop-color="#69D3F4"/>
</linearGradient>
<linearGradient id="paint5_linear_801_4112" x1="667.533" y1="767.543" x2="691.788" y2="753.919" gradientUnits="userSpaceOnUse">
<stop stop-color="#B58400"/>
<stop offset="0.491667" stop-color="#FFD668"/>
<stop offset="1" stop-color="#B58400"/>
</linearGradient>
<linearGradient id="paint6_linear_801_4112" x1="738.611" y1="924.332" x2="781.584" y2="901.652" gradientUnits="userSpaceOnUse">
<stop stop-color="#B58400"/>
<stop offset="0.491667" stop-color="#FFD668"/>
<stop offset="1" stop-color="#B58400"/>
</linearGradient>
<linearGradient id="paint7_linear_801_4112" x1="128.9" y1="525.332" x2="428.619" y2="369.893" gradientUnits="userSpaceOnUse">
<stop stop-color="#872199"/>
<stop offset="0.285417" stop-color="#DF5AF6"/>
<stop offset="0.69375" stop-color="#AB1BC4"/>
<stop offset="1" stop-color="#DE68F2"/>
</linearGradient>
<radialGradient id="paint8_radial_801_4112" cx="0" cy="0" r="1" gradientUnits="userSpaceOnUse" gradientTransform="translate(353.467 180.801) rotate(12.2842) scale(41.2851 41.2851)">
<stop stop-color="#FFD668"/>
<stop offset="1" stop-color="#B58400"/>
</radialGradient>
<clipPath id="clip0_801_4112">
<rect width="1070.43" height="1034.65" fill="white"/>
</clipPath>
</defs>
</svg>
