<svg width="16" height="16" viewBox="0 0 16 16" fill="none" xmlns="http://www.w3.org/2000/svg">
<path d="M11.9903 1.20793C13.1313 1.86668 14.0788 2.81416 14.7375 3.95515C15.3963 5.09614 15.7431 6.39043 15.7431 7.70793C15.743 9.02543 15.3962 10.3197 14.7375 11.4607C14.0787 12.6017 13.1312 13.5491 11.9902 14.2079C10.8492 14.8666 9.55494 15.2134 8.23744 15.2134C6.91994 15.2134 5.62566 14.8665 4.48468 14.2078C3.34371 13.549 2.39624 12.6015 1.73752 11.4605C1.07879 10.3195 0.732022 9.02519 0.732056 7.70769L0.735809 7.46451C0.777842 6.1683 1.15503 4.90511 1.83059 3.79807C2.50615 2.69103 3.45704 1.77793 4.59055 1.14779C5.72406 0.517656 7.00151 0.19198 8.29836 0.202518C9.5952 0.213057 10.8672 0.55945 11.9903 1.20793ZM8.23756 3.20439C8.0385 3.20439 7.84759 3.28347 7.70684 3.42422C7.56608 3.56498 7.48701 3.75588 7.48701 3.95494C6.88983 3.95494 6.31711 4.19217 5.89485 4.61443C5.47258 5.0367 5.23536 5.60942 5.23536 6.20659C5.23536 6.80376 5.47258 7.37648 5.89485 7.79875C6.31711 8.22101 6.88983 8.45824 7.48701 8.45824V9.95934C7.36253 9.96623 7.23826 9.94262 7.12498 9.89057C7.01171 9.83851 6.91286 9.75957 6.83703 9.66062L6.78599 9.58482C6.6833 9.41921 6.52023 9.30003 6.33126 9.25248C6.14229 9.20493 5.94224 9.23274 5.7734 9.33003C5.60456 9.42731 5.48018 9.58645 5.42655 9.77379C5.37292 9.96112 5.39426 10.162 5.48604 10.3339C5.67761 10.6661 5.95087 10.9439 6.2799 11.1409C6.60893 11.338 6.98284 11.4477 7.36617 11.4597H7.48701C7.48685 11.6437 7.55426 11.8213 7.67643 11.9588C7.79861 12.0963 7.96704 12.1842 8.14974 12.2057L8.23756 12.211C8.43661 12.211 8.62752 12.1319 8.76827 11.9912C8.90903 11.8504 8.98811 11.6595 8.98811 11.4604L9.1202 11.4567C9.70533 11.4229 10.2542 11.1622 10.6502 10.7301C11.0462 10.298 11.2582 9.72857 11.241 9.14271C11.2238 8.55686 10.9788 8.0008 10.5581 7.59268C10.1374 7.18457 9.57421 6.95658 8.98811 6.95714V5.45604C9.2568 5.44703 9.49173 5.56112 9.63808 5.75476L9.68912 5.83056C9.79181 5.99617 9.95488 6.11535 10.1438 6.1629C10.3328 6.21045 10.5329 6.18264 10.7017 6.08535C10.8706 5.98807 10.9949 5.82893 11.0486 5.64159C11.1022 5.45426 11.0809 5.25341 10.9891 5.08152C10.7976 4.74913 10.5244 4.47118 10.1953 4.27402C9.8663 4.07686 9.49234 3.96702 9.10894 3.95494H8.98811C8.98811 3.75588 8.90903 3.56498 8.76827 3.42422C8.62752 3.28347 8.43661 3.20439 8.23756 3.20439ZM8.98811 8.45824C9.18716 8.45824 9.37807 8.53732 9.51882 8.67807C9.65958 8.81883 9.73866 9.00973 9.73866 9.20879C9.73866 9.40785 9.65958 9.59875 9.51882 9.73951C9.37807 9.88026 9.18716 9.95934 8.98811 9.95934V8.45824ZM7.48701 5.45604V6.95714C7.28795 6.95714 7.09704 6.87806 6.95629 6.73731C6.81553 6.59655 6.73646 6.40565 6.73646 6.20659C6.73646 6.00753 6.81553 5.81663 6.95629 5.67587C7.09704 5.53512 7.28795 5.45604 7.48701 5.45604Z" fill="#FFA930"/>
</svg>
