<svg width="780" height="780" viewBox="0 0 780 780" fill="none" xmlns="http://www.w3.org/2000/svg">
<path d="M33.3463 233.761C-53.6431 430.984 35.4298 660.721 232.292 746.903C429.158 833.078 659.269 743.059 746.259 545.84C833.244 348.619 744.175 118.88 547.31 32.7025C496.604 10.5055 443.711 -0.00346581 391.607 8.57395e-07C241.422 0.00680085 97.9297 87.3402 33.3463 233.761Z" fill="url(#paint0_linear_769_324)"/>
<mask id="mask0_769_324" style="mask-type:luminance" maskUnits="userSpaceOnUse" x="0" y="0" width="780" height="780">
<path d="M33.3463 233.761C-53.6431 430.984 35.4298 660.721 232.292 746.903C429.158 833.078 659.269 743.059 746.259 545.84C833.244 348.619 744.175 118.88 547.31 32.7025C496.604 10.5055 443.711 -0.00346581 391.607 8.57395e-07C241.422 0.00680085 97.9297 87.3402 33.3463 233.761Z" fill="white"/>
</mask>
<g mask="url(#mask0_769_324)">
<path d="M44.6243 238.289C-39.6129 429.788 46.6417 652.861 237.275 736.543C427.912 820.217 650.742 732.809 734.98 541.313C819.213 349.813 732.962 126.74 542.325 43.063C493.224 21.51 442.005 11.306 391.549 11.3093C246.116 11.316 107.164 96.1149 44.6243 238.289Z" fill="url(#paint1_linear_769_324)"/>
<mask id="mask1_769_324" style="mask-type:luminance" maskUnits="userSpaceOnUse" x="12" y="11" width="756" height="758">
<path d="M44.6243 238.289C-39.6129 429.788 46.6417 652.861 237.275 736.543C427.912 820.217 650.742 732.809 734.98 541.313C819.213 349.813 732.962 126.74 542.325 43.063C493.224 21.51 442.005 11.306 391.549 11.3093C246.116 11.316 107.164 96.1149 44.6243 238.289Z" fill="white"/>
</mask>
<g mask="url(#mask1_769_324)">
<path opacity="0.340164" d="M21.4689 452.143C72.4492 208.482 297.4 49.3741 523.911 96.7657C750.42 144.158 892.716 380.103 841.734 623.764C790.755 867.425 565.804 1026.53 339.294 979.141C112.783 931.749 -29.5116 695.804 21.4689 452.143Z" fill="url(#paint2_radial_769_324)"/>
</g>
</g>
<path d="M94.8541 472.449C139.91 636.499 308.487 732.483 471.378 686.837C634.276 641.195 729.807 471.203 684.747 307.153C639.696 143.106 471.119 47.121 308.223 92.7656C266.445 104.471 229.117 124.342 197.435 150.208C105.591 225.199 61.355 350.475 94.8541 472.449Z" fill="url(#paint3_linear_769_324)"/>
<mask id="mask2_769_324" style="mask-type:luminance" maskUnits="userSpaceOnUse" x="83" y="81" width="613" height="618">
<path d="M94.8541 472.449C139.91 636.499 308.487 732.483 471.378 686.837C634.276 641.195 729.807 471.203 684.747 307.153C639.696 143.106 471.119 47.121 308.223 92.7656C266.445 104.471 229.117 124.342 197.435 150.208C105.591 225.199 61.355 350.475 94.8541 472.449Z" fill="white"/>
</mask>
<g mask="url(#mask2_769_324)">
<path d="M110.499 312.752C58.1209 475.081 145.897 648.697 306.548 700.533C467.203 752.374 639.903 662.804 692.278 500.472C744.659 338.147 656.883 164.529 496.228 112.691C455.024 99.3934 413.054 95.3988 372.499 99.5481C254.927 111.579 149.443 192.056 110.499 312.752Z" fill="url(#paint4_linear_769_324)"/>
<mask id="mask3_769_324" style="mask-type:luminance" maskUnits="userSpaceOnUse" x="95" y="97" width="613" height="619">
<path d="M110.499 312.752C58.1209 475.081 145.897 648.697 306.548 700.533C467.203 752.374 639.903 662.804 692.278 500.472C744.659 338.147 656.883 164.529 496.228 112.691C455.024 99.3934 413.054 95.3988 372.499 99.5481C254.927 111.579 149.443 192.056 110.499 312.752Z" fill="white"/>
</mask>
<g mask="url(#mask3_769_324)">
<path opacity="0.311475" d="M137.688 441.769C272.856 275.813 514.673 248.987 677.8 381.851C840.928 514.715 863.593 756.957 728.425 922.913C593.256 1088.87 351.44 1115.7 188.312 982.833C25.1849 849.969 2.51952 607.727 137.688 441.769Z" fill="url(#paint5_radial_769_324)"/>
</g>
</g>
<path d="M389.801 201.948L415.161 288.924L477.743 223.783L460.072 312.668L545.536 284.286L488.885 354.718L577.655 369.593L494.999 405.438L566.736 460.167L477.013 453.212L515.285 535.255L439.048 487.092L435.088 577.655L389.801 499.32L344.515 577.655L340.555 487.092L264.318 535.255L302.59 453.212L212.866 460.167L284.604 405.438L201.948 369.593L290.718 354.718L234.066 284.286L319.531 312.668L301.86 223.783L364.442 288.924L389.801 201.948Z" fill="url(#paint6_linear_769_324)"/>
<mask id="mask4_769_324" style="mask-type:luminance" maskUnits="userSpaceOnUse" x="201" y="201" width="377" height="377">
<path d="M389.801 201.948L415.161 288.924L477.743 223.783L460.072 312.668L545.536 284.286L488.885 354.718L577.655 369.593L494.999 405.438L566.736 460.167L477.013 453.212L515.285 535.255L439.048 487.092L435.088 577.655L389.801 499.32L344.515 577.655L340.555 487.092L264.318 535.255L302.59 453.212L212.866 460.167L284.604 405.438L201.948 369.593L290.718 354.718L234.066 284.286L319.531 312.668L301.86 223.783L364.442 288.924L389.801 201.948Z" fill="white"/>
</mask>
<g mask="url(#mask4_769_324)">
<path opacity="0.309426" d="M421.582 338.463C585.026 321.171 731.42 438.516 748.562 600.56C765.705 762.604 647.106 907.983 483.662 925.273C320.22 942.564 173.826 825.22 156.682 663.176C139.54 501.132 258.14 355.754 421.582 338.463ZM447.825 586.511C422.558 589.184 404.224 611.658 406.874 636.708C409.525 661.758 432.154 679.897 457.421 677.224C482.688 674.552 501.021 652.078 498.372 627.028C495.721 601.979 473.09 583.839 447.825 586.511Z" fill="url(#paint7_linear_769_324)"/>
</g>
<defs>
<linearGradient id="paint0_linear_769_324" x1="164.839" y1="55.6661" x2="664.96" y2="679.766" gradientUnits="userSpaceOnUse">
<stop offset="0.00625" stop-color="#FFE77A"/>
<stop offset="1" stop-color="#F18D00"/>
</linearGradient>
<linearGradient id="paint1_linear_769_324" x1="171.956" y1="65.3603" x2="657.852" y2="670.068" gradientUnits="userSpaceOnUse">
<stop stop-color="#FFD255"/>
<stop offset="1" stop-color="#FFC100"/>
</linearGradient>
<radialGradient id="paint2_radial_769_324" cx="0" cy="0" r="1" gradientTransform="matrix(383.42 324.511 -315.248 418.084 140.98 221.259)" gradientUnits="userSpaceOnUse">
<stop stop-color="white"/>
<stop offset="1" stop-color="white" stop-opacity="0"/>
</radialGradient>
<linearGradient id="paint3_linear_769_324" x1="151.79" y1="584.104" x2="627.813" y2="195.499" gradientUnits="userSpaceOnUse">
<stop stop-color="#FF9E1E"/>
<stop offset="1" stop-color="#FFAF00"/>
</linearGradient>
<linearGradient id="paint4_linear_769_324" x1="116.141" y1="257.789" x2="589.896" y2="646.528" gradientUnits="userSpaceOnUse">
<stop stop-color="#FFDA42"/>
<stop offset="1" stop-color="#FF9000"/>
</linearGradient>
<radialGradient id="paint5_radial_769_324" cx="0" cy="0" r="1" gradientTransform="matrix(73.8716 461.694 -461.442 80.517 362.255 314.101)" gradientUnits="userSpaceOnUse">
<stop stop-color="white"/>
<stop offset="1" stop-color="white" stop-opacity="0"/>
</radialGradient>
<linearGradient id="paint6_linear_769_324" x1="445.855" y1="583.605" x2="309.533" y2="270.144" gradientUnits="userSpaceOnUse">
<stop stop-color="#F0A611"/>
<stop offset="1" stop-color="#D07E00"/>
</linearGradient>
<linearGradient id="paint7_linear_769_324" x1="421.582" y1="338.463" x2="483.662" y2="925.275" gradientUnits="userSpaceOnUse">
<stop stop-color="#F0A611"/>
<stop offset="1" stop-color="#D07E00"/>
</linearGradient>
</defs>
</svg>
