<svg width="20" height="20" viewBox="0 0 20 20" fill="none" xmlns="http://www.w3.org/2000/svg">
<path d="M9.86584 19.1617C14.94 19.1617 19.0533 15.0484 19.0533 9.97424C19.0533 4.90012 14.94 0.786743 9.86584 0.786743C4.79172 0.786743 0.678345 4.90012 0.678345 9.97424C0.678345 15.0484 4.79172 19.1617 9.86584 19.1617Z" fill="#F9C23C"/>
<path opacity="0.53" d="M17.0846 9.97424C17.0846 13.961 13.8526 17.193 9.86584 17.193C5.87913 17.193 2.64709 13.961 2.64709 9.97424C2.64709 5.98752 5.87913 2.75549 9.86584 2.75549C13.8526 2.75549 17.0846 5.98752 17.0846 9.97424ZM14.0133 12.5271C13.99 12.4566 13.9451 12.3953 13.8851 12.3518C13.825 12.3082 13.7528 12.2846 13.6787 12.2842H13.6983V7.19174C13.9805 7.00799 14.033 6.55518 13.6918 6.35174L10.1546 4.21237C10.078 4.16396 9.98926 4.13827 9.89866 4.13827C9.80805 4.13827 9.71931 4.16396 9.64272 4.21237L6.09897 6.35174C5.75772 6.55518 5.81022 7.00799 6.08584 7.19174V12.2908H6.01366C5.85616 12.2908 5.71834 12.3958 5.67897 12.5467L5.44928 13.3671C5.38366 13.5902 5.55428 13.8133 5.78397 13.8133H13.9543C14.184 13.8067 14.3546 13.5771 14.2824 13.3474L14.0133 12.5271ZM7.17522 7.27049V12.2842H8.2646V7.27049H7.17522ZM9.34741 7.27049V12.2842H10.4565V7.27049H9.34741ZM11.5458 7.27049V12.2842H12.609V7.27049H11.5458Z" fill="#D3883E"/>
</svg>
