<svg width="19" height="21" viewBox="0 0 19 21" fill="none" xmlns="http://www.w3.org/2000/svg">
<path d="M18.6097 5.41219C18.3876 4.94815 18.0748 4.53331 17.6897 4.19219L14.6897 1.47219C14.0294 0.866946 13.191 0.491586 12.2997 0.402195H6.13969C5.47725 0.374104 4.81583 0.478047 4.19394 0.707976C3.57205 0.937905 3.0021 1.28923 2.51726 1.7415C2.03242 2.19376 1.64237 2.73795 1.36982 3.34238C1.09727 3.9468 0.947657 4.5994 0.929688 5.26219V15.5622C0.965063 16.5617 1.29938 17.5277 1.88944 18.3352C2.4795 19.1427 3.29818 19.7548 4.23969 20.0922C4.8518 20.3249 5.50578 20.427 6.15969 20.3922H13.7197C14.3821 20.4203 15.0435 20.3163 15.6654 20.0864C16.2873 19.8565 16.8573 19.5052 17.3421 19.0529C17.827 18.6006 18.217 18.0564 18.4896 17.452C18.7621 16.8476 18.9117 16.195 18.9297 15.5322V6.96219C18.9345 6.42865 18.8254 5.90021 18.6097 5.41219ZM13.7697 13.4922L11.1097 16.1622C10.9566 16.3111 10.7768 16.4299 10.5797 16.5122C10.4457 16.5722 10.3057 16.6089 10.1597 16.6222C10.028 16.6522 9.89133 16.6522 9.75969 16.6222C9.61451 16.6093 9.47253 16.5721 9.33969 16.5122C9.1426 16.4299 8.9628 16.3111 8.80969 16.1622L6.14969 13.4922C5.98586 13.3009 5.90025 13.0548 5.90998 12.8031C5.9197 12.5515 6.02403 12.3127 6.20212 12.1346C6.38022 11.9565 6.61896 11.8522 6.87063 11.8425C7.12231 11.8328 7.36839 11.9184 7.55969 12.0822L8.95969 13.4822V8.8722C8.95969 8.60698 9.06504 8.35262 9.25258 8.16509C9.44012 7.97755 9.69447 7.87219 9.95969 7.87219C10.2249 7.87219 10.4793 7.97755 10.6668 8.16509C10.8543 8.35262 10.9597 8.60698 10.9597 8.8722V13.4822L12.3597 12.0822C12.551 11.9184 12.7971 11.8328 13.0487 11.8425C13.3004 11.8522 13.5392 11.9565 13.7173 12.1346C13.8953 12.3127 13.9997 12.5515 14.0094 12.8031C14.0191 13.0548 13.9335 13.3009 13.7697 13.4922ZM13.9897 5.80219C13.847 5.80352 13.7055 5.77656 13.5733 5.72287C13.4411 5.66919 13.3209 5.58985 13.2195 5.48943C13.1182 5.38901 13.0377 5.2695 12.9828 5.13782C12.9279 5.00613 12.8997 4.86487 12.8997 4.72219V2.07219C13.1797 2.22419 13.4497 2.39419 13.7097 2.58219L16.7097 5.31219C16.8764 5.45286 17.0164 5.61619 17.1297 5.80219H13.9897Z" fill="#567BF7"/>
</svg>
