<svg width="93" height="93" viewBox="0 0 93 93" fill="none" xmlns="http://www.w3.org/2000/svg">
<path d="M46.2041 0L52.3962 21.0817L67.6762 5.2924L63.3619 26.8369L84.2293 19.9572L70.397 37.0289L92.0713 40.6348L71.8897 49.3229L89.4057 62.5883L67.4982 60.9024L76.8431 80.7884L58.2285 69.1147L57.2615 91.0656L46.2041 72.0784L35.1467 91.0656L34.1797 69.1147L15.5651 80.7884L24.91 60.9024L3.00252 62.5883L20.5185 49.3229L0.33688 40.6348L22.0112 37.0289L8.17887 19.9572L29.0463 26.8369L24.732 5.2924L40.012 21.0817L46.2041 0Z" fill="url(#paint0_linear_1078_6504)"/>
<path d="M30.3187 58.5369V38.0069H44.3928V41.4799H34.4639V46.3393H43.0344V49.8123H34.4639V58.5369H30.3187ZM47.8518 58.5369V38.0069H61.9259V41.4799H51.997V46.3393H60.5675V49.8123H51.997V58.5369H47.8518Z" fill="#594100"/>
<defs>
<linearGradient id="paint0_linear_1078_6504" x1="17.9401" y1="4.64235" x2="87.0586" y2="99.6803" gradientUnits="userSpaceOnUse">
<stop stop-color="#FFBA01"/>
<stop offset="1" stop-color="#775700"/>
</linearGradient>
</defs>
</svg>
