<svg width="13" height="17" viewBox="0 0 13 17" fill="none" xmlns="http://www.w3.org/2000/svg">
<path d="M11.7994 7.73654C11.597 7.47255 11.3506 7.24376 11.1218 7.01497C10.5322 6.487 9.86347 6.10861 9.3003 5.55424C7.98916 4.2695 7.69877 2.1488 8.53473 0.520874C7.69877 0.723265 6.96841 1.18084 6.34364 1.68242C4.06454 3.51274 3.16698 6.74219 4.24053 9.51406C4.27573 9.60205 4.31093 9.69005 4.31093 9.80444C4.31093 9.99803 4.17894 10.174 4.00295 10.2444C3.80055 10.3324 3.58936 10.2796 3.42217 10.1388C3.37223 10.097 3.33046 10.0463 3.29898 9.98923C2.30462 8.73089 2.14623 6.92698 2.815 5.48384C1.34547 6.68059 0.544706 8.70449 0.659101 10.614C0.711898 11.054 0.764696 11.494 0.914289 11.9339C1.03748 12.4619 1.27507 12.9899 1.53906 13.4563C2.48942 14.9786 4.13494 16.0698 5.90366 16.2897C7.78677 16.5273 9.80188 16.1841 11.245 14.8818C12.8553 13.4211 13.4185 11.0804 12.5913 9.07408L12.477 8.84529C12.2922 8.44051 11.7994 7.73654 11.7994 7.73654ZM9.01871 13.2803C8.77232 13.4915 8.36754 13.7203 8.05076 13.8083C7.0652 14.1602 6.07965 13.6675 5.49888 13.0867C6.54603 12.8403 7.1708 12.0659 7.35559 11.2828C7.50518 10.5788 7.2236 9.99803 7.1092 9.32047C7.00361 8.6693 7.0212 8.11492 7.25879 7.50775C7.42599 7.84213 7.60198 8.17652 7.81317 8.44051C8.49074 9.32047 9.55549 9.70765 9.78428 10.9044C9.81948 11.0276 9.83707 11.1508 9.83707 11.2828C9.86347 12.0043 9.54669 12.7963 9.01871 13.2803Z" fill="#D64045"/>
</svg>
