<svg width="17" height="16" viewBox="0 0 17 16" fill="none" xmlns="http://www.w3.org/2000/svg">
<path d="M6.14235 0.881865C4.78269 0.874671 3.45899 2.18398 4.06329 3.80982H1.78279C1.4012 3.80982 1.03524 3.96141 0.765408 4.23123C0.495581 4.50106 0.343994 4.86703 0.343994 5.24862V6.68742C0.343994 6.87821 0.419788 7.0612 0.554701 7.19611C0.689615 7.33102 0.872597 7.40682 1.06339 7.40682H7.53799V5.24862H8.97678V7.40682H15.4514C15.6422 7.40682 15.8252 7.33102 15.9601 7.19611C16.095 7.0612 16.1708 6.87821 16.1708 6.68742V5.24862C16.1708 4.86703 16.0192 4.50106 15.7494 4.23123C15.4795 3.96141 15.1136 3.80982 14.732 3.80982H12.4515C13.2932 1.45738 10.1278 -0.204427 8.66744 1.82428L8.25739 2.37102L7.84733 1.80989C7.39411 1.16963 6.76823 0.889059 6.14235 0.881865ZM6.09919 2.37102C6.73945 2.37102 7.06318 3.14797 6.60996 3.60119C6.15674 4.05442 5.37979 3.73069 5.37979 3.09042C5.37979 2.89962 5.45558 2.71664 5.5905 2.58173C5.72541 2.44682 5.90839 2.37102 6.09919 2.37102ZM10.4156 2.37102C11.0558 2.37102 11.3796 3.14797 10.9264 3.60119C10.4731 4.05442 9.69618 3.73069 9.69618 3.09042C9.69618 2.89962 9.77198 2.71664 9.90689 2.58173C10.0418 2.44682 10.2248 2.37102 10.4156 2.37102ZM1.06339 8.12622V13.8814C1.06339 14.263 1.21498 14.629 1.48481 14.8988C1.75463 15.1686 2.1206 15.3202 2.50219 15.3202H14.0126C14.3942 15.3202 14.7601 15.1686 15.03 14.8988C15.2998 14.629 15.4514 14.263 15.4514 13.8814V8.12622H8.97678V13.8814H7.53799V8.12622H1.06339Z" fill="white"/>
</svg>
