<svg width="160" height="45" viewBox="0 0 160 45" fill="none" xmlns="http://www.w3.org/2000/svg">
<path d="M52.7548 10.1754C52.7548 10.5156 52.9816 10.7172 53.4352 10.7802C53.9014 10.8306 54.3739 10.8873 54.8527 10.9503C55.3315 11.0007 55.8606 11.0637 56.4402 11.1393C57.0324 11.2023 57.5805 11.2716 58.0845 11.3472C58.5885 11.4228 59.0988 11.5236 59.6154 11.6496C60.1446 11.763 60.5982 11.9646 60.9762 12.2544C61.3542 12.5316 61.6314 12.9222 61.8078 13.4262C61.9842 13.9176 62.0724 14.4909 62.0724 15.1461C62.0724 16.3431 61.8141 17.2629 61.2975 17.9055C60.7935 18.5355 60.0879 18.9576 59.1807 19.1718C58.2861 19.3734 57.1647 19.4742 55.8165 19.4742C54.4306 19.4742 53.2651 19.3734 52.3201 19.1718C51.3751 18.9576 50.5687 18.5481 49.9009 17.9433C49.2457 17.3385 48.9181 16.2801 48.9181 14.7681H52.3768C52.3768 15.2847 52.6603 15.6942 53.2273 15.9966C53.8069 16.2864 54.6322 16.4313 55.7031 16.4313C56.8497 16.4313 57.612 16.3053 57.99 16.0533C58.368 15.8013 58.557 15.5178 58.557 15.2028C58.557 14.9382 58.3617 14.7555 57.9711 14.6547C57.5931 14.5539 57.108 14.4531 56.5158 14.3523C55.9362 14.2389 55.3567 14.1507 54.7771 14.0877C54.2101 14.0247 53.662 13.968 53.1328 13.9176C52.6162 13.8546 52.0933 13.7475 51.5641 13.5963C51.0349 13.4451 50.575 13.2435 50.1844 12.9915C49.7938 12.7269 49.4851 12.3426 49.2583 11.8386C49.0315 11.322 48.9181 10.755 48.9181 10.1376C48.9181 9.10444 49.1449 8.29174 49.5985 7.69955C50.0521 7.09475 50.7766 6.67266 51.772 6.43326C52.78 6.19386 54.0085 6.07416 55.4574 6.07416C56.9442 6.07416 58.116 6.19386 58.9728 6.43326C59.8296 6.67266 60.5541 7.11365 61.1463 7.75625C61.7385 8.38624 62.0346 9.31863 62.0346 10.5534H58.6704C58.6704 10.1628 58.3932 9.84153 57.8388 9.58953C57.2844 9.33753 56.5221 9.21154 55.5519 9.21154C54.3676 9.21154 53.6053 9.29973 53.2651 9.47613C52.9249 9.63993 52.7548 9.87303 52.7548 10.1754ZM63.5913 19.1718V6.31986H74.9879V9.34383H67.4469V11.1771H74.6288V14.1066H67.4469V16.1478H74.9879V19.1718H63.5913ZM76.4927 19.1718V6.31986H80.3482V16.0533H88.2295V19.1718H76.4927ZM89.7447 19.1718V6.31986H101.141V9.34383H93.6003V11.2338H100.933V14.2578H93.6003V19.1718H89.7447ZM107.579 19.1718V9.43833H102.646V6.31986H116.367V9.43833H111.435V19.1718H107.579ZM127.022 19.1718L126.134 16.9794H119.708L118.82 19.1718H114.643L119.973 6.31986H125.888L131.199 19.1718H127.022ZM120.993 13.8609H124.868L123.091 9.49503H122.77L120.993 13.8609ZM132.712 19.1718V6.31986H140.008C141.129 6.31986 142.118 6.49626 142.975 6.84905C143.832 7.20185 144.443 7.71215 144.808 8.37994C145.186 9.04774 145.375 9.85413 145.375 10.7991C145.375 12.2229 145.01 13.3254 144.279 14.1066C143.561 14.8878 142.15 15.2784 140.045 15.2784H136.568V19.1718H132.712ZM136.568 12.2544H139.838C140.543 12.2544 140.984 12.1221 141.161 11.8575C141.337 11.5803 141.425 11.2275 141.425 10.7991C141.425 10.3581 141.331 10.0053 141.142 9.74073C140.965 9.47613 140.562 9.34383 139.932 9.34383H136.568V12.2544ZM146.887 19.1718V6.31986H158.284V9.34383H150.743V11.1771H157.925V14.1066H150.743V16.1478H158.284V19.1718H146.887Z" fill="white"/>
<path d="M48.8614 36.1635L48.8218 23.3116L56.0982 23.2892C57.6354 23.2845 58.8394 23.5076 59.7101 23.9585C60.5935 24.4094 61.037 25.2144 61.0406 26.3736C61.0439 27.4446 60.7943 28.2203 60.2917 28.7006C59.8018 29.1683 59.141 29.4035 58.3094 29.406L58.3099 29.5572C59.6708 29.5908 60.5913 29.8211 61.0714 30.248C61.5641 30.6623 61.8118 31.3104 61.8145 32.1924C61.8184 33.4524 61.3867 34.4239 60.5194 35.107C59.6647 35.79 58.4183 36.1341 56.7804 36.1391L48.8614 36.1635ZM52.6927 28.2893L55.9435 28.2793C56.3719 28.278 56.6677 28.1889 56.8309 28.012C57.0068 27.8224 57.0942 27.5891 57.0934 27.3119C57.0924 27.0095 57.0035 26.7703 56.8266 26.5945C56.6622 26.406 56.3973 26.3123 56.0319 26.3134L52.6867 26.3237L52.6927 28.2893ZM52.7076 33.1276L56.6765 33.1154C57.0797 33.1142 57.3755 33.0125 57.5639 32.8103C57.7649 32.6081 57.8649 32.3495 57.8639 32.0345C57.863 31.7447 57.7678 31.4993 57.5782 31.2983C57.4011 31.0846 57.1047 30.9784 56.6889 30.9797L52.701 30.992L52.7076 33.1276ZM74.6219 36.0842L73.7268 33.8945L67.3009 33.9143L66.4194 36.1094L62.2425 36.1223L67.5327 23.254L73.4483 23.2358L78.7987 36.0713L74.6219 36.0842ZM68.5765 30.7919L72.4509 30.78L70.6609 26.4196L70.3396 26.4206L68.5765 30.7919ZM82.0146 36.0614L81.9847 26.328L77.0518 26.3432L77.0422 23.2248L90.7634 23.1825L90.773 26.301L85.8402 26.3162L85.8702 36.0495L82.0146 36.0614ZM97.2415 36.0145L97.2115 26.2812L92.2787 26.2963L92.2691 23.1779L105.99 23.1356L106 26.2541L101.067 26.2693L101.097 36.0027L97.2415 36.0145ZM107.535 35.9828L107.496 23.131L111.351 23.1191L111.381 32.8525L119.263 32.8282L119.272 35.9467L107.535 35.9828ZM120.787 35.942L120.748 23.0902L132.144 23.0551L132.154 26.0791L124.613 26.1023L124.618 27.9356L131.8 27.9135L131.809 30.8429L124.627 30.865L124.634 32.9062L132.175 32.883L132.184 35.907L120.787 35.942Z" fill="white"/>
<path d="M22.2993 0L25.2877 10.1745L32.6622 2.55424L30.5801 12.9522L40.6512 9.63183L33.9753 17.8711L44.4359 19.6114L34.6958 23.8045L43.1494 30.2067L32.5763 29.393L37.0864 38.9905L28.1025 33.3565L27.6358 43.9505L22.2993 34.7868L16.9627 43.9505L16.496 33.3565L7.51211 38.9905L12.0222 29.393L1.44909 30.2067L9.90272 23.8045L0.162586 19.6114L10.6232 17.8711L3.94733 9.63183L14.0185 12.9522L11.9363 2.55424L19.3108 10.1745L22.2993 0Z" fill="#4B7CFF"/>
</svg>
