<svg width="81" height="81" viewBox="0 0 81 81" fill="none" xmlns="http://www.w3.org/2000/svg">
<rect width="80.8828" height="80.8828" rx="27.7147" fill="#43C4E3"/>
<path d="M67.0018 33.1818C66.1839 31.714 63.7748 26.2647 57.2662 26.163C51.4236 26.0719 48.8041 30.6237 47.5201 32.9867C46.2362 35.3495 46.407 36.1204 48.882 35.0377C51.3573 33.9551 52.8347 32.5329 57.078 32.5964C61.3214 32.6595 64.6991 33.9607 65.7835 34.5499C66.8676 35.139 67.8196 34.6496 67.0018 33.1818Z" fill="#215764"/>
<path d="M14.5687 34.0871C15.3143 32.5813 17.4548 27.0208 23.9506 26.6022C29.7818 26.2262 32.62 30.645 34.0177 32.9425C35.4152 35.2402 35.2822 36.0183 32.7574 35.0578C30.2326 34.0969 28.6874 32.7486 24.4522 33.0186C20.2168 33.2885 16.9068 34.7529 15.8524 35.3942C14.7982 36.0357 13.8232 35.5929 14.5687 34.0871Z" fill="#215764"/>
<path d="M51.7525 51.8343C51.0082 53.6532 48.9742 60.3504 41.42 61.0516C34.6385 61.6812 30.9518 56.4999 29.1259 53.8033C27.3002 51.1069 32.7969 55.7669 40.6869 55.5629C48.5768 55.359 52.4971 50.0155 51.7525 51.8343Z" fill="#215764"/>
</svg>
