<svg width="310" height="319" viewBox="0 0 310 319" fill="none" xmlns="http://www.w3.org/2000/svg">
<path d="M119.181 10.3725L101.774 115.735C101.173 121.323 96.8225 126.123 90.7528 127.879L9.88029 162.903C-3.45544 167.318 -3.23624 184.056 10.203 187.639L105.517 215.044C109.839 216.043 113.422 218.652 115.354 222.199L172.023 311.256C177.745 322.894 197.502 319.52 198.469 306.724C201.153 271.372 208.733 222.163 210.994 205.556C211.517 201.694 213.829 198.203 217.402 195.868C231.983 186.347 271.002 162.015 302.797 143.871C315.446 136.648 310.063 119.527 295.17 119.598L201.273 110.15C194.939 110.008 189.421 106.495 187.298 101.26L149.827 10.2405C147.826 3.40533 141.362 0 134.803 0C128.191 0 121.49 3.46373 119.181 10.3725Z" fill="url(#paint0_linear_769_350)"/>
<path d="M123.733 14.9669C122.061 17.6998 121.231 20.7581 120.879 23.8257L105.978 115.827C105.474 120.462 102.092 126.476 96.9709 127.942L17.893 163.616C6.63062 167.294 7.55449 177.962 18.9109 180.907L106.761 202.03C110.413 202.85 113.442 205.002 115.077 207.94L169.181 289.582C175.889 305.635 185.535 300.58 186.907 286.395C189.949 254.986 196.155 208.523 198.047 194.767C198.489 191.564 200.434 188.666 203.45 186.731C215.758 178.822 252.515 158.052 278.826 142.254C299.594 129.783 285.018 121.815 272.437 121.895L185.551 113.792C180.205 113.682 175.538 110.783 173.743 106.447L139.815 18.1328C136.261 12.8144 132.957 10.4316 130.043 10.4316C127.651 10.4316 125.522 12.0437 123.733 14.9669Z" fill="url(#paint1_linear_769_350)"/>
<mask id="mask0_769_350" style="mask-type:luminance" maskUnits="userSpaceOnUse" x="9" y="10" width="281" height="290">
<path d="M123.733 14.9669C122.061 17.6998 121.231 20.7581 120.879 23.8257L105.978 115.827C105.474 120.462 102.092 126.476 96.9709 127.942L17.893 163.616C6.63062 167.294 7.55449 177.962 18.9109 180.907L106.761 202.03C110.413 202.85 113.442 205.002 115.077 207.94L169.181 289.582C175.889 305.635 185.535 300.58 186.907 286.395C189.949 254.986 196.155 208.523 198.047 194.767C198.489 191.564 200.434 188.666 203.45 186.731C215.758 178.822 252.515 158.052 278.826 142.254C299.594 129.783 285.018 121.815 272.437 121.895L185.551 113.792C180.205 113.682 175.538 110.783 173.743 106.447L139.815 18.1328C136.261 12.8144 132.957 10.4316 130.043 10.4316C127.651 10.4316 125.522 12.0437 123.733 14.9669Z" fill="white"/>
</mask>
<g mask="url(#mask0_769_350)">
<path d="M100.7 250.259C100.7 161.99 180.765 90.4337 279.527 90.4337C378.291 90.4337 458.355 161.99 458.355 250.259C458.355 338.528 378.291 410.084 279.527 410.084C180.765 410.084 100.7 338.528 100.7 250.259Z" fill="url(#paint2_radial_769_350)"/>
</g>
<defs>
<linearGradient id="paint0_linear_769_350" x1="133.293" y1="15.8183" x2="260.146" y2="315.697" gradientUnits="userSpaceOnUse">
<stop stop-color="#FFF9D3"/>
<stop offset="1" stop-color="#FFEDAD"/>
</linearGradient>
<linearGradient id="paint1_linear_769_350" x1="131.926" y1="58.6844" x2="181.253" y2="304.878" gradientUnits="userSpaceOnUse">
<stop stop-color="white"/>
<stop offset="1" stop-color="#FFF1A6"/>
</linearGradient>
<radialGradient id="paint2_radial_769_350" cx="0" cy="0" r="1" gradientTransform="matrix(120.066 56.4654 -57.5926 117.716 131.937 155.512)" gradientUnits="userSpaceOnUse">
<stop stop-color="white"/>
<stop offset="1" stop-color="#FFFFFD" stop-opacity="0"/>
</radialGradient>
</defs>
</svg>
