<svg width="15" height="14" viewBox="0 0 15 14" fill="none" xmlns="http://www.w3.org/2000/svg">
<path d="M4.63945 11.9627L7.78945 10.0627L10.9395 11.9877L10.1145 8.38771L12.8895 5.98771L9.23945 5.66271L7.78945 2.26271L6.33945 5.63771L2.68945 5.96271L5.46445 8.38771L4.63945 11.9627ZM7.78945 11.2397L4.15945 13.4317C4.05279 13.4844 3.95379 13.5057 3.86245 13.4957C3.77179 13.485 3.68345 13.4537 3.59745 13.4017C3.51079 13.3484 3.44545 13.273 3.40145 13.1757C3.35745 13.0784 3.35345 12.972 3.38945 12.8567L4.35545 8.74671L1.16045 5.97671C1.07045 5.90338 1.01112 5.81571 0.982453 5.71371C0.953787 5.61171 0.96012 5.51404 1.00145 5.42071C1.04279 5.32738 1.09779 5.25071 1.16645 5.19071C1.23579 5.13271 1.32912 5.09338 1.44645 5.07271L5.66245 4.70471L7.30645 0.812709C7.35179 0.702709 7.41712 0.623376 7.50245 0.574709C7.58779 0.526042 7.68345 0.501709 7.78945 0.501709C7.89545 0.501709 7.99145 0.526042 8.07745 0.574709C8.16345 0.623376 8.22845 0.702709 8.27245 0.812709L9.91645 4.70471L14.1315 5.07271C14.2495 5.09271 14.3431 5.13238 14.4125 5.19171C14.4818 5.25038 14.5371 5.32671 14.5785 5.42071C14.6191 5.51404 14.6251 5.61171 14.5965 5.71371C14.5678 5.81571 14.5085 5.90338 14.4185 5.97671L11.2235 8.74671L12.1895 12.8567C12.2268 12.9707 12.2231 13.0767 12.1785 13.1747C12.1338 13.2727 12.0681 13.348 11.9815 13.4007C11.8961 13.454 11.8078 13.4857 11.7165 13.4957C11.6258 13.5057 11.5271 13.4844 11.4205 13.4317L7.78945 11.2397Z" fill="#FFA930"/>
<path d="M6.06836 5.26284L1.94531 5.72084L4.75123 8.75637L4.17852 12.9944L7.78656 10.7036L11.6237 12.9944L10.7074 8.75637L13.9145 5.72084L9.79103 5.26284L7.78656 1.48291L6.06836 5.26284Z" fill="#FFA930"/>
</svg>
