<svg width="680" height="646" viewBox="0 0 680 646" fill="none" xmlns="http://www.w3.org/2000/svg">
<path d="M308.95 22.7793C323.214 -0.926541 357.582 -0.926586 371.846 22.7793L454.542 160.219C460.442 170.024 469.736 177.323 480.662 180.728L649.13 233.229C676.013 241.607 683.838 275.89 663.251 295.102L562.121 389.472C548.363 402.312 543.655 422.155 550.179 439.808L605.543 589.588C616.365 618.869 588.015 647.435 558.652 636.833L360.598 565.316C350.348 561.615 339.127 561.615 328.876 565.316L127.646 637.979C98.7626 648.408 70.6073 620.869 80.3936 591.763L131.691 439.202C137.548 421.784 132.646 402.552 119.168 390.062L16.7754 295.18C-3.93729 275.987 3.87843 241.571 30.8496 233.206L200.088 180.719H200.089C210.699 177.428 219.776 170.469 225.707 161.104L226.271 160.19L308.95 22.7793Z" stroke="white" stroke-width="10"/>
</svg>
