<svg width="606" height="589" viewBox="0 0 606 589" fill="none" xmlns="http://www.w3.org/2000/svg">
<path d="M42.0278 176.611C-23.6945 325.617 43.6019 499.188 192.335 564.3C341.071 629.407 514.925 561.396 580.647 412.393C646.367 263.388 579.073 89.8164 430.337 24.7074C392.028 7.93708 352.066 -0.00261849 312.701 6.47779e-07C199.233 0.00513818 90.8218 65.9873 42.0278 176.611Z" fill="url(#paint0_linear_774_765)"/>
<mask id="mask0_774_765" style="mask-type:luminance" maskUnits="userSpaceOnUse" x="16" y="0" width="590" height="590">
<path d="M42.0278 176.611C-23.6945 325.617 43.6019 499.188 192.335 564.3C341.071 629.407 514.925 561.396 580.647 412.393C646.367 263.388 579.073 89.8164 430.337 24.7074C392.028 7.93708 352.066 -0.00261849 312.701 6.47779e-07C199.233 0.00513818 90.8218 65.9873 42.0278 176.611Z" fill="white"/>
</mask>
<g mask="url(#mask0_774_765)">
<path d="M50.5481 180.032C-13.0948 324.713 52.0723 493.25 196.099 556.473C340.13 619.69 508.482 553.652 572.125 408.973C635.765 264.291 570.601 95.7548 426.571 32.535C389.474 16.2512 350.777 8.54192 312.657 8.54443C202.779 8.54947 97.7981 72.6167 50.5481 180.032Z" fill="url(#paint1_linear_774_765)"/>
<mask id="mask1_774_765" style="mask-type:luminance" maskUnits="userSpaceOnUse" x="26" y="8" width="571" height="573">
<path d="M50.5481 180.032C-13.0948 324.713 52.0723 493.25 196.099 556.473C340.13 619.69 508.482 553.652 572.125 408.973C635.765 264.291 570.601 95.7548 426.571 32.535C389.474 16.2512 350.777 8.54192 312.657 8.54443C202.779 8.54947 97.7981 72.6167 50.5481 180.032Z" fill="white"/>
</mask>
<g mask="url(#mask1_774_765)">
<path opacity="0.340164" d="M33.0545 341.603C71.5712 157.512 241.526 37.3031 412.659 73.1084C583.792 108.914 691.299 287.175 652.782 471.266C614.265 655.357 444.311 775.566 273.177 739.761C102.044 703.955 -5.46226 525.694 33.0545 341.603Z" fill="url(#paint2_radial_774_765)"/>
</g>
</g>
<path d="M88.4985 356.945C122.539 480.887 249.903 553.405 372.97 518.919C496.043 484.435 568.218 356.003 534.174 232.061C500.138 108.119 372.774 35.6009 249.703 70.0862C218.139 78.9298 189.937 93.9425 166.001 113.485C96.6107 170.142 63.1893 264.791 88.4985 356.945Z" fill="url(#paint3_linear_774_765)"/>
<mask id="mask2_774_765" style="mask-type:luminance" maskUnits="userSpaceOnUse" x="80" y="61" width="463" height="467">
<path d="M88.4985 356.945C122.539 480.887 249.903 553.405 372.97 518.919C496.043 484.435 568.218 356.003 534.174 232.061C500.138 108.119 372.774 35.6009 249.703 70.0862C218.139 78.9298 189.937 93.9425 166.001 113.485C96.6107 170.142 63.1893 264.791 88.4985 356.945Z" fill="white"/>
</mask>
<g mask="url(#mask2_774_765)">
<path d="M100.318 236.29C60.7453 358.933 127.062 490.104 248.437 529.267C369.815 568.434 500.293 500.762 539.863 378.117C579.438 255.477 513.122 124.305 391.744 85.1402C360.614 75.0938 328.904 72.0758 298.264 75.2107C209.436 84.3001 129.741 145.102 100.318 236.29Z" fill="url(#paint4_linear_774_765)"/>
<mask id="mask3_774_765" style="mask-type:luminance" maskUnits="userSpaceOnUse" x="88" y="74" width="464" height="467">
<path d="M100.318 236.29C60.7453 358.933 127.062 490.104 248.437 529.267C369.815 568.434 500.293 500.762 539.863 378.117C579.438 255.477 513.122 124.305 391.744 85.1402C360.614 75.0938 328.904 72.0758 298.264 75.2107C209.436 84.3001 129.741 145.102 100.318 236.29Z" fill="white"/>
</mask>
<g mask="url(#mask3_774_765)">
<path opacity="0.311475" d="M120.86 333.766C222.982 208.383 405.68 188.115 528.925 288.496C652.172 388.878 669.296 571.897 567.174 697.28C465.051 822.664 282.354 842.932 159.108 742.55C35.8616 642.169 18.7375 459.15 120.86 333.766Z" fill="url(#paint5_radial_774_765)"/>
</g>
</g>
<path d="M90.0433 24.2688L76.8924 103.872C76.438 108.094 73.1513 111.721 68.5655 113.047L7.46476 139.509C-2.61065 142.844 -2.44504 155.49 7.70854 158.197L79.72 178.902C82.9858 179.657 85.6926 181.628 87.1522 184.308L129.967 251.592C134.29 260.385 149.217 257.836 149.947 248.168C151.975 221.459 157.702 184.281 159.41 171.734C159.805 168.816 161.552 166.178 164.251 164.415C175.268 157.221 204.747 138.838 228.769 125.13C238.326 119.673 234.259 106.737 223.007 106.791L152.065 99.6524C147.281 99.5456 143.111 96.8912 141.507 92.9363L113.198 24.169C111.685 19.0049 106.802 16.4321 101.847 16.4321C96.8511 16.4321 91.7881 19.049 90.0433 24.2688Z" fill="url(#paint6_linear_774_765)"/>
<path d="M93.483 27.7398C92.2198 29.8045 91.5932 32.1151 91.3273 34.4328L80.0692 103.942C79.6882 107.443 77.1328 111.987 73.2639 113.094L13.519 140.047C5.01007 142.826 5.70807 150.886 14.2881 153.111L80.6608 169.069C83.4195 169.689 85.7082 171.315 86.9433 173.535L127.82 235.217C132.888 247.345 140.176 243.526 141.213 232.809C143.511 209.079 148.2 173.975 149.629 163.582C149.963 161.163 151.432 158.973 153.711 157.511C163.01 151.535 190.781 135.844 210.659 123.907C226.35 114.486 215.337 108.466 205.832 108.526L140.188 102.404C136.149 102.321 132.623 100.131 131.267 96.8548L105.634 30.1316C102.948 26.1135 100.452 24.3132 98.2509 24.3132C96.4437 24.3132 94.8349 25.5312 93.483 27.7398Z" fill="url(#paint7_linear_774_765)"/>
<mask id="mask4_774_765" style="mask-type:luminance" maskUnits="userSpaceOnUse" x="7" y="24" width="212" height="219">
<path d="M93.483 27.7398C92.2198 29.8045 91.5932 32.1151 91.3273 34.4328L80.0692 103.942C79.6882 107.443 77.1328 111.987 73.2639 113.094L13.519 140.047C5.01007 142.826 5.70807 150.886 14.2881 153.111L80.6608 169.069C83.4195 169.689 85.7082 171.315 86.9433 173.535L127.82 235.217C132.888 247.345 140.176 243.526 141.213 232.809C143.511 209.079 148.2 173.975 149.629 163.582C149.963 161.163 151.432 158.973 153.711 157.511C163.01 151.535 190.781 135.844 210.659 123.907C226.35 114.486 215.337 108.466 205.832 108.526L140.188 102.404C136.149 102.321 132.623 100.131 131.267 96.8548L105.634 30.1316C102.948 26.1135 100.452 24.3132 98.2509 24.3132C96.4437 24.3132 94.8349 25.5312 93.483 27.7398Z" fill="white"/>
</mask>
<g mask="url(#mask4_774_765)">
<path d="M76.0811 205.508C76.0811 138.819 136.571 84.7566 211.188 84.7566C285.807 84.7566 346.296 138.819 346.296 205.508C346.296 272.197 285.807 326.259 211.188 326.259C136.571 326.259 76.0811 272.197 76.0811 205.508Z" fill="url(#paint8_radial_774_765)"/>
</g>
<path d="M311.337 152.576L330.497 218.288L377.778 169.072L364.428 236.227L428.998 214.783L386.197 267.996L453.264 279.235L390.816 306.316L445.015 347.665L377.227 342.411L406.143 404.396L348.544 368.008L345.552 436.43L311.337 377.246L277.122 436.43L274.13 368.008L216.531 404.396L245.447 342.411L177.658 347.665L231.858 306.316L169.41 279.235L236.477 267.996L193.675 214.783L258.246 236.227L244.896 169.072L292.177 218.288L311.337 152.576Z" fill="url(#paint9_linear_774_765)"/>
<mask id="mask5_774_765" style="mask-type:luminance" maskUnits="userSpaceOnUse" x="169" y="152" width="285" height="285">
<path d="M311.337 152.576L330.497 218.288L377.778 169.072L364.428 236.227L428.998 214.783L386.197 267.996L453.264 279.235L390.816 306.316L445.015 347.665L377.227 342.411L406.143 404.396L348.544 368.008L345.552 436.43L311.337 377.246L277.122 436.43L274.13 368.008L216.531 404.396L245.447 342.411L177.658 347.665L231.858 306.316L169.41 279.235L236.477 267.996L193.675 214.783L258.246 236.227L244.896 169.072L292.177 218.288L311.337 152.576Z" fill="white"/>
</mask>
<g mask="url(#mask5_774_765)">
<path opacity="0.309426" d="M335.348 255.715C458.833 242.651 569.436 331.308 582.387 453.735C595.339 576.162 505.735 685.999 382.25 699.062C258.766 712.126 148.163 623.47 135.21 501.043C122.259 378.615 211.863 268.779 335.348 255.715ZM355.174 443.12C336.085 445.14 322.233 462.119 324.235 481.045C326.238 499.971 343.335 513.676 362.424 511.656C381.514 509.637 395.365 492.657 393.363 473.732C391.361 454.807 374.263 441.102 355.174 443.12Z" fill="url(#paint10_linear_774_765)"/>
</g>
<defs>
<linearGradient id="paint0_linear_774_765" x1="141.373" y1="42.0569" x2="519.225" y2="513.577" gradientUnits="userSpaceOnUse">
<stop offset="0.00625" stop-color="#FFE77A"/>
<stop offset="1" stop-color="#F18D00"/>
</linearGradient>
<linearGradient id="paint1_linear_774_765" x1="146.75" y1="49.3811" x2="513.854" y2="506.25" gradientUnits="userSpaceOnUse">
<stop stop-color="#FFD255"/>
<stop offset="1" stop-color="#FFC100"/>
</linearGradient>
<radialGradient id="paint2_radial_774_765" cx="0" cy="0" r="1" gradientTransform="matrix(289.681 245.174 -238.176 315.871 123.348 167.166)" gradientUnits="userSpaceOnUse">
<stop stop-color="white"/>
<stop offset="1" stop-color="white" stop-opacity="0"/>
</radialGradient>
<linearGradient id="paint3_linear_774_765" x1="131.515" y1="441.302" x2="491.159" y2="147.704" gradientUnits="userSpaceOnUse">
<stop stop-color="#FF9E1E"/>
<stop offset="1" stop-color="#FFAF00"/>
</linearGradient>
<linearGradient id="paint4_linear_774_765" x1="104.58" y1="194.765" x2="462.512" y2="488.465" gradientUnits="userSpaceOnUse">
<stop stop-color="#FFDA42"/>
<stop offset="1" stop-color="#FF9000"/>
</linearGradient>
<radialGradient id="paint5_radial_774_765" cx="0" cy="0" r="1" gradientTransform="matrix(55.8114 348.819 -348.629 60.8322 290.525 237.31)" gradientUnits="userSpaceOnUse">
<stop stop-color="white"/>
<stop offset="1" stop-color="white" stop-opacity="0"/>
</radialGradient>
<linearGradient id="paint6_linear_774_765" x1="100.705" y1="28.3831" x2="196.545" y2="254.948" gradientUnits="userSpaceOnUse">
<stop stop-color="#FFF9D3"/>
<stop offset="1" stop-color="#FFEDAD"/>
</linearGradient>
<linearGradient id="paint7_linear_774_765" x1="99.6732" y1="60.7692" x2="136.941" y2="246.773" gradientUnits="userSpaceOnUse">
<stop stop-color="white"/>
<stop offset="1" stop-color="#FFF1A6"/>
</linearGradient>
<radialGradient id="paint8_radial_774_765" cx="0" cy="0" r="1" gradientTransform="matrix(90.7123 42.6608 -43.5124 88.9367 99.6808 133.925)" gradientUnits="userSpaceOnUse">
<stop stop-color="white"/>
<stop offset="1" stop-color="#FFFFFD" stop-opacity="0"/>
</radialGradient>
<linearGradient id="paint9_linear_774_765" x1="353.686" y1="440.926" x2="250.693" y2="204.099" gradientUnits="userSpaceOnUse">
<stop stop-color="#F0A611"/>
<stop offset="1" stop-color="#D07E00"/>
</linearGradient>
<linearGradient id="paint10_linear_774_765" x1="335.348" y1="255.715" x2="382.25" y2="699.063" gradientUnits="userSpaceOnUse">
<stop stop-color="#F0A611"/>
<stop offset="1" stop-color="#D07E00"/>
</linearGradient>
</defs>
</svg>
