<svg width="893" height="893" viewBox="0 0 893 893" fill="none" xmlns="http://www.w3.org/2000/svg">
<path d="M446.391 0L506.214 203.676L653.839 51.1313L612.157 259.279L813.763 192.812L680.125 357.747L889.526 392.584L694.547 476.522L863.773 604.683L652.119 588.395L742.402 780.519L562.561 667.736L553.219 879.81L446.391 696.369L339.562 879.81L330.22 667.736L150.379 780.519L240.662 588.395L29.0081 604.683L198.234 476.522L3.2547 392.584L212.656 357.747L79.0183 192.812L280.624 259.279L238.943 51.1313L386.567 203.676L446.391 0Z" fill="#4B7CFF"/>
<path d="M530.213 349.867C526.687 347.908 522.81 346.662 518.803 346.201C514.796 345.74 510.737 346.073 506.858 347.181C502.98 348.289 499.357 350.15 496.198 352.658C493.039 355.167 490.405 358.272 488.446 361.799L431.431 464.404L398.801 431.774C395.968 428.84 392.579 426.501 388.832 424.891C385.085 423.282 381.056 422.434 376.978 422.399C372.9 422.364 368.856 423.141 365.082 424.685C361.307 426.229 357.879 428.509 354.995 431.393C352.111 434.276 349.831 437.705 348.287 441.48C346.743 445.254 345.966 449.298 346.001 453.376C346.037 457.453 346.884 461.483 348.493 465.23C350.103 468.977 352.442 472.366 355.376 475.199L416.798 536.621C422.602 542.44 430.433 545.634 438.51 545.634L442.764 545.327C447.471 544.669 451.961 542.927 455.881 540.238C459.8 537.55 463.042 533.988 465.352 529.834L542.129 391.634C544.089 388.11 545.336 384.233 545.798 380.226C546.26 376.22 545.928 372.161 544.822 368.283C543.715 364.404 541.856 360.782 539.349 357.622C536.842 354.462 533.738 351.827 530.213 349.867Z" fill="white"/>
</svg>
